<?xml version="1.0" encoding="iso-8859-1"?>
<!-- Generator: Adobe Illustrator 16.0.0, SVG Export Plug-In . SVG Version: 6.00 Build 0)  -->
<!DOCTYPE svg PUBLIC "-//W3C//DTD SVG 1.1//EN" "http://www.w3.org/Graphics/SVG/1.1/DTD/svg11.dtd">
<svg version="1.1" id="Capa_1" xmlns="http://www.w3.org/2000/svg" xmlns:xlink="http://www.w3.org/1999/xlink" x="0px" y="0px"
	 width="493.301px" height="493.301px" viewBox="0 0 493.301 493.301" style="enable-background:new 0 0 493.301 493.301;"
	 xml:space="preserve">
<g>
	<path d="M444.95,118.7c-6.1,0-13.5-8.6-14.7-19.6c0-9.8-8.6-17.1-18.399-17.1h-9.8c-4.9-14.7-18.4-25.7-35.5-25.7h-25.7
		C324.95,23.3,288.25,0,246.65,0c-41.6,0-77.1,22-94.2,56.3h-25.8c-15.9,0-30.6,11-35.5,25.7h-9.8c-9.8,0-18.4,7.3-18.4,17.1
		c0,11-7.3,19.6-14.7,19.6c-9.8,1.2-17.1,8.6-17.1,18.4v79.5c0,9.8,7.3,17.1,17.1,18.4c6.1,0,13.5,8.6,14.7,19.6
		c0,9.801,8.6,17.1,18.4,17.1h9.8c4.9,14.701,18.4,25.701,35.5,25.701h101.6v131c-18.4,7.299-31.8,25.699-31.8,46.5
		c0,9.799,8.6,18.4,18.4,18.4h31.8h31.8c9.8,0,18.4-8.602,18.4-18.4c0-20.801-13.5-39.201-31.8-46.5v-131h101.6
		c15.9,0,30.6-11,35.5-25.701h9.8c9.8,0,18.4-7.299,18.4-17.1c0-11,7.3-19.6,14.7-19.6c9.8-1.2,17.1-8.6,17.1-18.4V137
		C462.051,127.3,454.75,119.9,444.95,118.7z"/>
</g>
<g>
</g>
<g>
</g>
<g>
</g>
<g>
</g>
<g>
</g>
<g>
</g>
<g>
</g>
<g>
</g>
<g>
</g>
<g>
</g>
<g>
</g>
<g>
</g>
<g>
</g>
<g>
</g>
<g>
</g>
</svg>
